<svg width="984" height="577" viewBox="0 0 984 577" fill="none" xmlns="http://www.w3.org/2000/svg">
<g id="bissiness 2" clip-path="url(#clip0)">
<g id="dots">
<path id="Vector" d="M67.8446 109.003C71.6075 109.003 74.658 106.093 74.658 102.502C74.658 98.9109 71.6075 96 67.8446 96C64.0817 96 61.0312 98.9109 61.0312 102.502C61.0312 106.093 64.0817 109.003 67.8446 109.003Z" fill="#A7BFE8"/>
<path id="Vector_2" d="M102.334 109.003C106.097 109.003 109.147 106.093 109.147 102.502C109.147 98.9109 106.097 96 102.334 96C98.5709 96 95.5205 98.9109 95.5205 102.502C95.5205 106.093 98.5709 109.003 102.334 109.003Z" fill="#E6E6E6" fill-opacity="0.5"/>
<path id="Vector_3" d="M136.823 109.003C140.586 109.003 143.636 106.093 143.636 102.502C143.636 98.9109 140.586 96 136.823 96C133.06 96 130.01 98.9109 130.01 102.502C130.01 106.093 133.06 109.003 136.823 109.003Z" fill="#E6E6E6" fill-opacity="0.5"/>
<path id="Vector_4" d="M171.312 109.003C175.075 109.003 178.125 106.093 178.125 102.502C178.125 98.9109 175.075 96 171.312 96C167.549 96 164.499 98.9109 164.499 102.502C164.499 106.093 167.549 109.003 171.312 109.003Z" fill="#E6E6E6" fill-opacity="0.5"/>
<path id="Vector_5" d="M205.801 109.003C209.564 109.003 212.614 106.093 212.614 102.502C212.614 98.9109 209.564 96 205.801 96C202.038 96 198.988 98.9109 198.988 102.502C198.988 106.093 202.038 109.003 205.801 109.003Z" fill="#E6E6E6" fill-opacity="0.5"/>
<path id="Vector_6" d="M67.8446 142.328C71.6075 142.328 74.658 139.417 74.658 135.826C74.658 132.236 71.6075 129.325 67.8446 129.325C64.0817 129.325 61.0312 132.236 61.0312 135.826C61.0312 139.417 64.0817 142.328 67.8446 142.328Z" fill="#E6E6E6" fill-opacity="0.5"/>
<path id="Vector_7" d="M102.334 142.328C106.097 142.328 109.147 139.417 109.147 135.826C109.147 132.236 106.097 129.325 102.334 129.325C98.5709 129.325 95.5205 132.236 95.5205 135.826C95.5205 139.417 98.5709 142.328 102.334 142.328Z" fill="#A7BFE8"/>
<path id="Vector_8" d="M136.823 142.328C140.586 142.328 143.636 139.417 143.636 135.826C143.636 132.236 140.586 129.325 136.823 129.325C133.06 129.325 130.01 132.236 130.01 135.826C130.01 139.417 133.06 142.328 136.823 142.328Z" fill="#E6E6E6" fill-opacity="0.5"/>
<path id="Vector_9" d="M171.312 142.328C175.075 142.328 178.125 139.417 178.125 135.826C178.125 132.236 175.075 129.325 171.312 129.325C167.549 129.325 164.499 132.236 164.499 135.826C164.499 139.417 167.549 142.328 171.312 142.328Z" fill="#A7BFE8"/>
<path id="Vector_10" d="M205.801 142.328C209.564 142.328 212.614 139.417 212.614 135.826C212.614 132.236 209.564 129.325 205.801 129.325C202.038 129.325 198.988 132.236 198.988 135.826C198.988 139.417 202.038 142.328 205.801 142.328Z" fill="#E6E6E6" fill-opacity="0.5"/>
<path id="Vector_11" d="M67.8446 175.653C71.6075 175.653 74.658 172.742 74.658 169.151C74.658 165.56 71.6075 162.649 67.8446 162.649C64.0817 162.649 61.0312 165.56 61.0312 169.151C61.0312 172.742 64.0817 175.653 67.8446 175.653Z" fill="#E6E6E6" fill-opacity="0.5"/>
<path id="Vector_12" d="M102.334 175.653C106.097 175.653 109.147 172.742 109.147 169.151C109.147 165.56 106.097 162.649 102.334 162.649C98.5709 162.649 95.5205 165.56 95.5205 169.151C95.5205 172.742 98.5709 175.653 102.334 175.653Z" fill="#3F3D56" fill-opacity="0.5"/>
<path id="Vector_13" d="M136.823 175.653C140.586 175.653 143.636 172.742 143.636 169.151C143.636 165.56 140.586 162.649 136.823 162.649C133.06 162.649 130.01 165.56 130.01 169.151C130.01 172.742 133.06 175.653 136.823 175.653Z" fill="#E6E6E6" fill-opacity="0.5"/>
<path id="Vector_14" d="M171.312 175.653C175.075 175.653 178.125 172.742 178.125 169.151C178.125 165.56 175.075 162.649 171.312 162.649C167.549 162.649 164.499 165.56 164.499 169.151C164.499 172.742 167.549 175.653 171.312 175.653Z" fill="#E6E6E6" fill-opacity="0.5"/>
<path id="Vector_15" d="M205.801 175.653C209.564 175.653 212.614 172.742 212.614 169.151C212.614 165.56 209.564 162.649 205.801 162.649C202.038 162.649 198.988 165.56 198.988 169.151C198.988 172.742 202.038 175.653 205.801 175.653Z" fill="#E6E6E6" fill-opacity="0.5"/>
<path id="Vector_16" d="M239.813 109.003C243.576 109.003 246.627 106.093 246.627 102.502C246.627 98.9109 243.576 96 239.813 96C236.05 96 233 98.9109 233 102.502C233 106.093 236.05 109.003 239.813 109.003Z" fill="#A7BFE8"/>
<path id="Vector_17" d="M274.303 109.003C278.065 109.003 281.116 106.093 281.116 102.502C281.116 98.9109 278.065 96 274.303 96C270.54 96 267.489 98.9109 267.489 102.502C267.489 106.093 270.54 109.003 274.303 109.003Z" fill="#E6E6E6" fill-opacity="0.5"/>
<path id="Vector_18" d="M308.791 109.003C312.554 109.003 315.605 106.093 315.605 102.502C315.605 98.9109 312.554 96 308.791 96C305.028 96 301.978 98.9109 301.978 102.502C301.978 106.093 305.028 109.003 308.791 109.003Z" fill="#E6E6E6" fill-opacity="0.5"/>
<path id="Vector_19" d="M343.28 109.003C347.043 109.003 350.093 106.093 350.093 102.502C350.093 98.9109 347.043 96 343.28 96C339.517 96 336.467 98.9109 336.467 102.502C336.467 106.093 339.517 109.003 343.28 109.003Z" fill="#E6E6E6" fill-opacity="0.5"/>
<path id="Vector_20" d="M377.769 109.003C381.532 109.003 384.583 106.093 384.583 102.502C384.583 98.9109 381.532 96 377.769 96C374.007 96 370.956 98.9109 370.956 102.502C370.956 106.093 374.007 109.003 377.769 109.003Z" fill="#E6E6E6" fill-opacity="0.5"/>
<path id="Vector_21" d="M239.813 142.328C243.576 142.328 246.627 139.417 246.627 135.826C246.627 132.236 243.576 129.325 239.813 129.325C236.05 129.325 233 132.236 233 135.826C233 139.417 236.05 142.328 239.813 142.328Z" fill="#E6E6E6" fill-opacity="0.5"/>
<path id="Vector_22" d="M274.303 142.328C278.065 142.328 281.116 139.417 281.116 135.826C281.116 132.236 278.065 129.325 274.303 129.325C270.54 129.325 267.489 132.236 267.489 135.826C267.489 139.417 270.54 142.328 274.303 142.328Z" fill="#A7BFE8"/>
<path id="Vector_23" d="M308.791 142.328C312.554 142.328 315.605 139.417 315.605 135.826C315.605 132.236 312.554 129.325 308.791 129.325C305.028 129.325 301.978 132.236 301.978 135.826C301.978 139.417 305.028 142.328 308.791 142.328Z" fill="#E6E6E6" fill-opacity="0.5"/>
<path id="Vector_24" d="M343.28 142.328C347.043 142.328 350.093 139.417 350.093 135.826C350.093 132.236 347.043 129.325 343.28 129.325C339.517 129.325 336.467 132.236 336.467 135.826C336.467 139.417 339.517 142.328 343.28 142.328Z" fill="#A7BFE8"/>
<path id="Vector_25" d="M377.769 142.328C381.532 142.328 384.583 139.417 384.583 135.826C384.583 132.236 381.532 129.325 377.769 129.325C374.007 129.325 370.956 132.236 370.956 135.826C370.956 139.417 374.007 142.328 377.769 142.328Z" fill="#E6E6E6" fill-opacity="0.5"/>
<path id="Vector_26" d="M239.813 175.653C243.576 175.653 246.627 172.742 246.627 169.151C246.627 165.56 243.576 162.649 239.813 162.649C236.05 162.649 233 165.56 233 169.151C233 172.742 236.05 175.653 239.813 175.653Z" fill="#E6E6E6" fill-opacity="0.5"/>
<path id="Vector_27" d="M274.303 175.653C278.065 175.653 281.116 172.742 281.116 169.151C281.116 165.56 278.065 162.649 274.303 162.649C270.54 162.649 267.489 165.56 267.489 169.151C267.489 172.742 270.54 175.653 274.303 175.653Z" fill="#E6E6E6" fill-opacity="0.5"/>
<path id="Vector_28" d="M308.791 175.653C312.554 175.653 315.605 172.742 315.605 169.151C315.605 165.56 312.554 162.649 308.791 162.649C305.028 162.649 301.978 165.56 301.978 169.151C301.978 172.742 305.028 175.653 308.791 175.653Z" fill="#E6E6E6" fill-opacity="0.5"/>
<path id="Vector_29" d="M343.28 175.653C347.043 175.653 350.093 172.742 350.093 169.151C350.093 165.56 347.043 162.649 343.28 162.649C339.517 162.649 336.467 165.56 336.467 169.151C336.467 172.742 339.517 175.653 343.28 175.653Z" fill="#E6E6E6" fill-opacity="0.5"/>
<path id="Vector_30" d="M377.769 175.653C381.532 175.653 384.583 172.742 384.583 169.151C384.583 165.56 381.532 162.649 377.769 162.649C374.007 162.649 370.956 165.56 370.956 169.151C370.956 172.742 374.007 175.653 377.769 175.653Z" fill="#E6E6E6" fill-opacity="0.5"/>
<path id="Vector_31" d="M67.8446 208.977C71.6075 208.977 74.658 206.067 74.658 202.476C74.658 198.885 71.6075 195.974 67.8446 195.974C64.0817 195.974 61.0312 198.885 61.0312 202.476C61.0312 206.067 64.0817 208.977 67.8446 208.977Z" fill="#E6E6E6" fill-opacity="0.5"/>
<path id="Vector_32" d="M102.334 208.977C106.097 208.977 109.147 206.067 109.147 202.476C109.147 198.885 106.097 195.974 102.334 195.974C98.5709 195.974 95.5205 198.885 95.5205 202.476C95.5205 206.067 98.5709 208.977 102.334 208.977Z" fill="#A7BFE8"/>
<path id="Vector_33" d="M136.823 208.977C140.586 208.977 143.636 206.067 143.636 202.476C143.636 198.885 140.586 195.974 136.823 195.974C133.06 195.974 130.01 198.885 130.01 202.476C130.01 206.067 133.06 208.977 136.823 208.977Z" fill="#E6E6E6" fill-opacity="0.5"/>
<path id="Vector_34" d="M171.312 208.977C175.075 208.977 178.125 206.067 178.125 202.476C178.125 198.885 175.075 195.974 171.312 195.974C167.549 195.974 164.499 198.885 164.499 202.476C164.499 206.067 167.549 208.977 171.312 208.977Z" fill="#E6E6E6" fill-opacity="0.5"/>
<path id="Vector_35" d="M205.801 208.977C209.564 208.977 212.614 206.067 212.614 202.476C212.614 198.885 209.564 195.974 205.801 195.974C202.038 195.974 198.988 198.885 198.988 202.476C198.988 206.067 202.038 208.977 205.801 208.977Z" fill="#3F3D56" fill-opacity="0.5"/>
<path id="Vector_36" d="M240.29 208.977C244.053 208.977 247.103 206.067 247.103 202.476C247.103 198.885 244.053 195.974 240.29 195.974C236.527 195.974 233.477 198.885 233.477 202.476C233.477 206.067 236.527 208.977 240.29 208.977Z" fill="#E6E6E6" fill-opacity="0.5"/>
<path id="Vector_37" d="M274.779 208.977C278.542 208.977 281.592 206.067 281.592 202.476C281.592 198.885 278.542 195.974 274.779 195.974C271.016 195.974 267.966 198.885 267.966 202.476C267.966 206.067 271.016 208.977 274.779 208.977Z" fill="#E6E6E6" fill-opacity="0.5"/>
<path id="Vector_38" d="M309.268 208.977C313.031 208.977 316.082 206.067 316.082 202.476C316.082 198.885 313.031 195.974 309.268 195.974C305.506 195.974 302.455 198.885 302.455 202.476C302.455 206.067 305.506 208.977 309.268 208.977Z" fill="#E6E6E6" fill-opacity="0.5"/>
<path id="Vector_39" d="M343.757 208.977C347.52 208.977 350.571 206.067 350.571 202.476C350.571 198.885 347.52 195.974 343.757 195.974C339.994 195.974 336.944 198.885 336.944 202.476C336.944 206.067 339.994 208.977 343.757 208.977Z" fill="#E6E6E6" fill-opacity="0.5"/>
<path id="Vector_40" d="M378.246 208.977C382.009 208.977 385.059 206.067 385.059 202.476C385.059 198.885 382.009 195.974 378.246 195.974C374.483 195.974 371.433 198.885 371.433 202.476C371.433 206.067 374.483 208.977 378.246 208.977Z" fill="#A7BFE8"/>
<path id="Vector_41" d="M205.801 242.302C209.564 242.302 212.614 239.391 212.614 235.8C212.614 232.21 209.564 229.299 205.801 229.299C202.038 229.299 198.988 232.21 198.988 235.8C198.988 239.391 202.038 242.302 205.801 242.302Z" fill="#E6E6E6" fill-opacity="0.5"/>
<path id="Vector_42" d="M240.29 242.302C244.053 242.302 247.103 239.391 247.103 235.8C247.103 232.21 244.053 229.299 240.29 229.299C236.527 229.299 233.477 232.21 233.477 235.8C233.477 239.391 236.527 242.302 240.29 242.302Z" fill="#A7BFE8"/>
<path id="Vector_43" d="M274.779 242.302C278.542 242.302 281.592 239.391 281.592 235.8C281.592 232.21 278.542 229.299 274.779 229.299C271.016 229.299 267.966 232.21 267.966 235.8C267.966 239.391 271.016 242.302 274.779 242.302Z" fill="#E6E6E6" fill-opacity="0.5"/>
<path id="Vector_44" d="M309.268 242.302C313.031 242.302 316.082 239.391 316.082 235.8C316.082 232.21 313.031 229.299 309.268 229.299C305.506 229.299 302.455 232.21 302.455 235.8C302.455 239.391 305.506 242.302 309.268 242.302Z" fill="#E6E6E6" fill-opacity="0.5"/>
<path id="Vector_45" d="M343.757 242.302C347.52 242.302 350.571 239.391 350.571 235.8C350.571 232.21 347.52 229.299 343.757 229.299C339.994 229.299 336.944 232.21 336.944 235.8C336.944 239.391 339.994 242.302 343.757 242.302Z" fill="#E6E6E6" fill-opacity="0.5"/>
<path id="Vector_46" d="M378.246 242.302C382.009 242.302 385.059 239.391 385.059 235.8C385.059 232.21 382.009 229.299 378.246 229.299C374.483 229.299 371.433 232.21 371.433 235.8C371.433 239.391 374.483 242.302 378.246 242.302Z" fill="#E6E6E6" fill-opacity="0.5"/>
<path id="Vector_47" d="M205.801 275.627C209.564 275.627 212.614 272.716 212.614 269.125C212.614 265.535 209.564 262.624 205.801 262.624C202.038 262.624 198.988 265.535 198.988 269.125C198.988 272.716 202.038 275.627 205.801 275.627Z" fill="#E6E6E6" fill-opacity="0.5"/>
<path id="Vector_48" d="M240.29 275.627C244.053 275.627 247.103 272.716 247.103 269.125C247.103 265.535 244.053 262.624 240.29 262.624C236.527 262.624 233.477 265.535 233.477 269.125C233.477 272.716 236.527 275.627 240.29 275.627Z" fill="#E6E6E6" fill-opacity="0.5"/>
<path id="Vector_49" d="M274.779 275.627C278.542 275.627 281.592 272.716 281.592 269.125C281.592 265.535 278.542 262.624 274.779 262.624C271.016 262.624 267.966 265.535 267.966 269.125C267.966 272.716 271.016 275.627 274.779 275.627Z" fill="#E6E6E6" fill-opacity="0.5"/>
<path id="Vector_50" d="M309.268 275.627C313.031 275.627 316.082 272.716 316.082 269.125C316.082 265.535 313.031 262.624 309.268 262.624C305.506 262.624 302.455 265.535 302.455 269.125C302.455 272.716 305.506 275.627 309.268 275.627Z" fill="#E6E6E6" fill-opacity="0.5"/>
<path id="Vector_51" d="M343.757 275.627C347.52 275.627 350.571 272.716 350.571 269.125C350.571 265.534 347.52 262.623 343.757 262.623C339.994 262.623 336.944 265.534 336.944 269.125C336.944 272.716 339.994 275.627 343.757 275.627Z" fill="#A7BFE8"/>
<path id="Vector_52" d="M378.246 275.627C382.009 275.627 385.059 272.716 385.059 269.125C385.059 265.534 382.009 262.623 378.246 262.623C374.483 262.623 371.433 265.534 371.433 269.125C371.433 272.716 374.483 275.627 378.246 275.627Z" fill="#E6E6E6" fill-opacity="0.5"/>
<path id="Vector_53" d="M205.801 308.951C209.564 308.951 212.614 306.041 212.614 302.45C212.614 298.859 209.564 295.948 205.801 295.948C202.038 295.948 198.988 298.859 198.988 302.45C198.988 306.041 202.038 308.951 205.801 308.951Z" fill="#E6E6E6" fill-opacity="0.5"/>
<path id="Vector_54" d="M240.29 308.951C244.053 308.951 247.103 306.041 247.103 302.45C247.103 298.859 244.053 295.948 240.29 295.948C236.527 295.948 233.477 298.859 233.477 302.45C233.477 306.041 236.527 308.951 240.29 308.951Z" fill="#E6E6E6" fill-opacity="0.5"/>
<path id="Vector_55" d="M274.779 308.951C278.542 308.951 281.592 306.041 281.592 302.45C281.592 298.859 278.542 295.948 274.779 295.948C271.016 295.948 267.966 298.859 267.966 302.45C267.966 306.041 271.016 308.951 274.779 308.951Z" fill="#E6E6E6" fill-opacity="0.5"/>
<path id="Vector_56" d="M309.268 308.951C313.031 308.951 316.082 306.041 316.082 302.45C316.082 298.859 313.031 295.948 309.268 295.948C305.506 295.948 302.455 298.859 302.455 302.45C302.455 306.041 305.506 308.951 309.268 308.951Z" fill="#E6E6E6" fill-opacity="0.5"/>
<path id="Vector_57" d="M67.8134 242.6C71.5763 242.6 74.6266 239.689 74.6266 236.099C74.6266 232.508 71.5763 229.597 67.8134 229.597C64.0505 229.597 61 232.508 61 236.099C61 239.689 64.0505 242.6 67.8134 242.6Z" fill="#E6E6E6" fill-opacity="0.5"/>
<path id="Vector_58" d="M102.302 242.6C106.065 242.6 109.115 239.689 109.115 236.099C109.115 232.508 106.065 229.597 102.302 229.597C98.5392 229.597 95.4888 232.508 95.4888 236.099C95.4888 239.689 98.5392 242.6 102.302 242.6Z" fill="#E6E6E6" fill-opacity="0.5"/>
<path id="Vector_59" d="M136.791 242.6C140.554 242.6 143.605 239.689 143.605 236.099C143.605 232.508 140.554 229.597 136.791 229.597C133.028 229.597 129.978 232.508 129.978 236.099C129.978 239.689 133.028 242.6 136.791 242.6Z" fill="#E6E6E6" fill-opacity="0.5"/>
<path id="Vector_60" d="M171.28 242.6C175.043 242.6 178.094 239.689 178.094 236.099C178.094 232.508 175.043 229.597 171.28 229.597C167.517 229.597 164.467 232.508 164.467 236.099C164.467 239.689 167.517 242.6 171.28 242.6Z" fill="#E6E6E6" fill-opacity="0.5"/>
<path id="Vector_61" d="M67.8134 275.925C71.5763 275.925 74.6266 273.014 74.6266 269.423C74.6266 265.832 71.5763 262.921 67.8134 262.921C64.0505 262.921 61 265.832 61 269.423C61 273.014 64.0505 275.925 67.8134 275.925Z" fill="#E6E6E6" fill-opacity="0.5"/>
<path id="Vector_62" d="M102.302 275.925C106.065 275.925 109.115 273.014 109.115 269.423C109.115 265.832 106.065 262.921 102.302 262.921C98.5392 262.921 95.4888 265.832 95.4888 269.423C95.4888 273.014 98.5392 275.925 102.302 275.925Z" fill="#A7BFE8"/>
<path id="Vector_63" d="M136.791 275.925C140.554 275.925 143.605 273.014 143.605 269.423C143.605 265.832 140.554 262.921 136.791 262.921C133.028 262.921 129.978 265.832 129.978 269.423C129.978 273.014 133.028 275.925 136.791 275.925Z" fill="#E6E6E6" fill-opacity="0.5"/>
<path id="Vector_64" d="M171.28 275.925C175.043 275.925 178.094 273.014 178.094 269.423C178.094 265.832 175.043 262.921 171.28 262.921C167.517 262.921 164.467 265.832 164.467 269.423C164.467 273.014 167.517 275.925 171.28 275.925Z" fill="#E6E6E6" fill-opacity="0.5"/>
<path id="Vector_65" d="M67.8134 309.249C71.5763 309.249 74.6266 306.338 74.6266 302.747C74.6266 299.157 71.5763 296.246 67.8134 296.246C64.0505 296.246 61 299.157 61 302.747C61 306.338 64.0505 309.249 67.8134 309.249Z" fill="#E6E6E6" fill-opacity="0.5"/>
<path id="Vector_66" d="M102.302 309.249C106.065 309.249 109.115 306.338 109.115 302.747C109.115 299.157 106.065 296.246 102.302 296.246C98.5392 296.246 95.4888 299.157 95.4888 302.747C95.4888 306.338 98.5392 309.249 102.302 309.249Z" fill="#E6E6E6" fill-opacity="0.5"/>
<path id="Vector_67" d="M136.791 309.249C140.554 309.249 143.605 306.338 143.605 302.747C143.605 299.157 140.554 296.246 136.791 296.246C133.028 296.246 129.978 299.157 129.978 302.747C129.978 306.338 133.028 309.249 136.791 309.249Z" fill="#E6E6E6" fill-opacity="0.5"/>
<path id="Vector_68" d="M171.28 309.249C175.043 309.249 178.094 306.338 178.094 302.747C178.094 299.157 175.043 296.246 171.28 296.246C167.517 296.246 164.467 299.157 164.467 302.747C164.467 306.338 167.517 309.249 171.28 309.249Z" fill="#3F3D56" fill-opacity="0.5"/>
<path id="Vector_69" d="M343.757 308.951C347.52 308.951 350.571 306.041 350.571 302.45C350.571 298.859 347.52 295.948 343.757 295.948C339.994 295.948 336.944 298.859 336.944 302.45C336.944 306.041 339.994 308.951 343.757 308.951Z" fill="#E6E6E6" fill-opacity="0.5"/>
<path id="Vector_70" d="M378.246 308.951C382.009 308.951 385.059 306.041 385.059 302.45C385.059 298.859 382.009 295.948 378.246 295.948C374.483 295.948 371.433 298.859 371.433 302.45C371.433 306.041 374.483 308.951 378.246 308.951Z" fill="#E6E6E6" fill-opacity="0.5"/>
<path id="Vector_71" d="M67.8446 342.277C71.6075 342.277 74.658 339.366 74.658 335.775C74.658 332.184 71.6075 329.273 67.8446 329.273C64.0817 329.273 61.0312 332.184 61.0312 335.775C61.0312 339.366 64.0817 342.277 67.8446 342.277Z" fill="#E6E6E6" fill-opacity="0.5"/>
<path id="Vector_72" d="M102.334 342.277C106.097 342.277 109.147 339.366 109.147 335.775C109.147 332.184 106.097 329.273 102.334 329.273C98.5709 329.273 95.5205 332.184 95.5205 335.775C95.5205 339.366 98.5709 342.277 102.334 342.277Z" fill="#E6E6E6" fill-opacity="0.5"/>
<path id="Vector_73" d="M136.823 342.277C140.586 342.277 143.636 339.366 143.636 335.775C143.636 332.184 140.586 329.273 136.823 329.273C133.06 329.273 130.01 332.184 130.01 335.775C130.01 339.366 133.06 342.277 136.823 342.277Z" fill="#E6E6E6" fill-opacity="0.5"/>
<path id="Vector_74" d="M171.312 342.277C175.075 342.277 178.125 339.366 178.125 335.775C178.125 332.184 175.075 329.273 171.312 329.273C167.549 329.273 164.499 332.184 164.499 335.775C164.499 339.366 167.549 342.277 171.312 342.277Z" fill="#A7BFE8"/>
<path id="Vector_75" d="M205.801 342.277C209.564 342.277 212.614 339.366 212.614 335.775C212.614 332.184 209.564 329.273 205.801 329.273C202.038 329.273 198.988 332.184 198.988 335.775C198.988 339.366 202.038 342.277 205.801 342.277Z" fill="#E6E6E6" fill-opacity="0.5"/>
<path id="Vector_76" d="M240.29 342.277C244.053 342.277 247.103 339.366 247.103 335.775C247.103 332.184 244.053 329.273 240.29 329.273C236.527 329.273 233.477 332.184 233.477 335.775C233.477 339.366 236.527 342.277 240.29 342.277Z" fill="#E6E6E6" fill-opacity="0.5"/>
<path id="Vector_77" d="M274.779 342.277C278.542 342.277 281.592 339.366 281.592 335.775C281.592 332.184 278.542 329.273 274.779 329.273C271.016 329.273 267.966 332.184 267.966 335.775C267.966 339.366 271.016 342.277 274.779 342.277Z" fill="#A7BFE8"/>
<path id="Vector_78" d="M309.268 342.277C313.031 342.277 316.082 339.366 316.082 335.775C316.082 332.184 313.031 329.273 309.268 329.273C305.506 329.273 302.455 332.184 302.455 335.775C302.455 339.366 305.506 342.277 309.268 342.277Z" fill="#E6E6E6" fill-opacity="0.5"/>
<path id="Vector_79" d="M343.757 342.277C347.52 342.277 350.571 339.366 350.571 335.775C350.571 332.184 347.52 329.273 343.757 329.273C339.994 329.273 336.944 332.184 336.944 335.775C336.944 339.366 339.994 342.277 343.757 342.277Z" fill="#E6E6E6" fill-opacity="0.5"/>
<path id="Vector_80" d="M378.246 342.277C382.009 342.277 385.059 339.366 385.059 335.775C385.059 332.184 382.009 329.273 378.246 329.273C374.483 329.273 371.433 332.184 371.433 335.775C371.433 339.366 374.483 342.277 378.246 342.277Z" fill="#E6E6E6" fill-opacity="0.5"/>
<path id="Vector_81" d="M205.823 375.243C209.586 375.243 212.636 372.332 212.636 368.741C212.636 365.15 209.586 362.239 205.823 362.239C202.06 362.239 199.01 365.15 199.01 368.741C199.01 372.332 202.06 375.243 205.823 375.243Z" fill="#E6E6E6" fill-opacity="0.5"/>
<path id="Vector_82" d="M240.312 375.243C244.075 375.243 247.125 372.332 247.125 368.741C247.125 365.15 244.075 362.239 240.312 362.239C236.549 362.239 233.499 365.15 233.499 368.741C233.499 372.332 236.549 375.243 240.312 375.243Z" fill="#E6E6E6" fill-opacity="0.5"/>
<path id="Vector_83" d="M274.801 375.243C278.564 375.243 281.614 372.332 281.614 368.741C281.614 365.15 278.564 362.239 274.801 362.239C271.038 362.239 267.988 365.15 267.988 368.741C267.988 372.332 271.038 375.243 274.801 375.243Z" fill="#E6E6E6" fill-opacity="0.5"/>
<path id="Vector_84" d="M309.29 375.243C313.053 375.243 316.103 372.332 316.103 368.741C316.103 365.15 313.053 362.239 309.29 362.239C305.527 362.239 302.477 365.15 302.477 368.741C302.477 372.332 305.527 375.243 309.29 375.243Z" fill="#3F3D56" fill-opacity="0.5"/>
<path id="Vector_85" d="M136.813 375.54C140.576 375.54 143.627 372.629 143.627 369.039C143.627 365.448 140.576 362.537 136.813 362.537C133.05 362.537 130 365.448 130 369.039C130 372.629 133.05 375.54 136.813 375.54Z" fill="#E6E6E6" fill-opacity="0.5"/>
<path id="Vector_86" d="M171.303 375.54C175.066 375.54 178.116 372.629 178.116 369.039C178.116 365.448 175.066 362.537 171.303 362.537C167.54 362.537 164.489 365.448 164.489 369.039C164.489 372.629 167.54 375.54 171.303 375.54Z" fill="#E6E6E6" fill-opacity="0.5"/>
<path id="Vector_87" d="M343.779 375.243C347.542 375.243 350.593 372.332 350.593 368.741C350.593 365.15 347.542 362.239 343.779 362.239C340.016 362.239 336.966 365.15 336.966 368.741C336.966 372.332 340.016 375.243 343.779 375.243Z" fill="#E6E6E6" fill-opacity="0.5"/>
<path id="Vector_88" d="M378.268 375.243C382.031 375.243 385.082 372.332 385.082 368.741C385.082 365.15 382.031 362.239 378.268 362.239C374.506 362.239 371.455 365.15 371.455 368.741C371.455 372.332 374.506 375.243 378.268 375.243Z" fill="#E6E6E6" fill-opacity="0.5"/>
<path id="Vector_89" d="M136.845 408.567C140.608 408.567 143.658 405.656 143.658 402.065C143.658 398.475 140.608 395.564 136.845 395.564C133.082 395.564 130.031 398.475 130.031 402.065C130.031 405.656 133.082 408.567 136.845 408.567Z" fill="#E6E6E6" fill-opacity="0.5"/>
<path id="Vector_90" d="M171.334 408.567C175.097 408.567 178.147 405.656 178.147 402.065C178.147 398.475 175.097 395.564 171.334 395.564C167.571 395.564 164.521 398.475 164.521 402.065C164.521 405.656 167.571 408.567 171.334 408.567Z" fill="#A7BFE8"/>
<path id="Vector_91" d="M205.823 408.567C209.586 408.567 212.636 405.656 212.636 402.065C212.636 398.475 209.586 395.564 205.823 395.564C202.06 395.564 199.01 398.475 199.01 402.065C199.01 405.656 202.06 408.567 205.823 408.567Z" fill="#E6E6E6" fill-opacity="0.5"/>
<path id="Vector_92" d="M240.312 408.567C244.075 408.567 247.125 405.656 247.125 402.065C247.125 398.475 244.075 395.564 240.312 395.564C236.549 395.564 233.499 398.475 233.499 402.065C233.499 405.656 236.549 408.567 240.312 408.567Z" fill="#E6E6E6" fill-opacity="0.5"/>
<path id="Vector_93" d="M274.801 408.567C278.564 408.567 281.614 405.656 281.614 402.065C281.614 398.475 278.564 395.564 274.801 395.564C271.038 395.564 267.988 398.475 267.988 402.065C267.988 405.656 271.038 408.567 274.801 408.567Z" fill="#A7BFE8"/>
<path id="Vector_94" d="M309.29 408.567C313.053 408.567 316.103 405.656 316.103 402.065C316.103 398.475 313.053 395.564 309.29 395.564C305.527 395.564 302.477 398.475 302.477 402.065C302.477 405.656 305.527 408.567 309.29 408.567Z" fill="#E6E6E6" fill-opacity="0.5"/>
<path id="Vector_95" d="M343.779 408.567C347.542 408.567 350.593 405.656 350.593 402.065C350.593 398.475 347.542 395.564 343.779 395.564C340.016 395.564 336.966 398.475 336.966 402.065C336.966 405.656 340.016 408.567 343.779 408.567Z" fill="#E6E6E6" fill-opacity="0.5"/>
<path id="Vector_96" d="M378.268 408.567C382.031 408.567 385.082 405.656 385.082 402.065C385.082 398.475 382.031 395.564 378.268 395.564C374.506 395.564 371.455 398.475 371.455 402.065C371.455 405.656 374.506 408.567 378.268 408.567Z" fill="#E6E6E6" fill-opacity="0.5"/>
<path id="Vector_97" d="M74.6542 369.125C74.6695 365.534 71.6315 362.611 67.8686 362.597C64.1057 362.582 61.0429 365.481 61.0277 369.072C61.0124 372.663 64.0504 375.586 67.8133 375.6C71.5762 375.615 74.639 372.716 74.6542 369.125Z" fill="#E6E6E6" fill-opacity="0.5"/>
<path id="Vector_98" d="M102.334 375.601C106.097 375.601 109.147 372.69 109.147 369.099C109.147 365.508 106.097 362.597 102.334 362.597C98.5709 362.597 95.5205 365.508 95.5205 369.099C95.5205 372.69 98.5709 375.601 102.334 375.601Z" fill="#E6E6E6" fill-opacity="0.5"/>
<path id="Vector_99" d="M74.6542 402.449C74.6695 398.858 71.6315 395.936 67.8686 395.921C64.1057 395.907 61.0429 398.806 61.0277 402.396C61.0124 405.987 64.0504 408.91 67.8133 408.924C71.5762 408.939 74.639 406.04 74.6542 402.449Z" fill="#A7BFE8"/>
<path id="Vector_100" d="M102.334 408.925C106.097 408.925 109.147 406.015 109.147 402.424C109.147 398.833 106.097 395.922 102.334 395.922C98.5709 395.922 95.5205 398.833 95.5205 402.424C95.5205 406.015 98.5709 408.925 102.334 408.925Z" fill="#E6E6E6" fill-opacity="0.5"/>
</g>
<path id="Vector_101" d="M987 370.262V579.367C986.992 582.981 984.735 586.446 980.722 589.002C976.709 591.557 971.269 592.995 965.595 593H18.4054C12.7306 592.995 7.29049 591.557 3.27784 589.002C-0.734817 586.446 -2.99244 582.981 -3 579.367V556.702C0.692123 547.04 15.3685 538.63 31.369 536.253C52.8417 533.066 75.0897 537.522 96.0666 541.868C117.031 546.213 139.399 550.542 160.778 547.099C222.827 537.139 229.918 473.115 291.686 462.506C327.861 456.295 363.421 472.101 392.679 487.012C421.937 501.914 457.377 517.78 493.606 511.688C520.135 507.223 538.249 492.201 556.229 479.002C574.21 465.804 597.809 452.656 625.142 454.182C653.758 455.775 674.575 472.876 702.402 477.409C738.992 483.356 775.167 465.932 796.773 446.206C818.366 426.481 832.721 403.1 860.735 386.988C894.194 367.74 943.105 362.926 987 370.262Z" fill="url(#paint0_linear)"/>
</g>
<defs>
<linearGradient id="paint0_linear" x1="492" y1="367" x2="492" y2="593" gradientUnits="userSpaceOnUse">
<stop stop-color="#A7BFE8"/>
<stop offset="1" stop-color="#A7BFE8" stop-opacity="0"/>
</linearGradient>
<clipPath id="clip0">
<rect width="983.548" height="576.157" fill="white"/>
</clipPath>
</defs>
</svg>
