<svg width="930" height="788" viewBox="0 0 930 788" fill="none" xmlns="http://www.w3.org/2000/svg">
<g id="process 1">
<path id="Vector" d="M748.166 64.2329C756.315 64.2329 762.921 57.6266 762.921 49.4774C762.921 41.3281 756.315 34.7218 748.166 34.7218C740.016 34.7218 733.41 41.3281 733.41 49.4774C733.41 57.6266 740.016 64.2329 748.166 64.2329Z" fill="#F1F1F1"/>
<path id="Vector_2" d="M661.166 635.233C669.315 635.233 675.921 628.627 675.921 620.477C675.921 612.328 669.315 605.722 661.166 605.722C653.016 605.722 646.41 612.328 646.41 620.477C646.41 628.627 653.016 635.233 661.166 635.233Z" fill="#F1F1F1"/>
<path id="Vector_3" d="M294.166 206.233C302.315 206.233 308.921 199.627 308.921 191.477C308.921 183.328 302.315 176.722 294.166 176.722C286.016 176.722 279.41 183.328 279.41 191.477C279.41 199.627 286.016 206.233 294.166 206.233Z" fill="#F1F1F1"/>
<path id="Vector_4" d="M157 788C243.709 788 314 777.703 314 765C314 752.297 243.709 742 157 742C70.2913 742 0 752.297 0 765C0 777.703 70.2913 788 157 788Z" fill="#F1F1F1"/>
<path id="Vector_5" d="M239.936 598.976L279.351 586.628C277.169 570.236 272.19 554.341 264.629 539.634L225.214 551.981C234.463 565.94 239.568 582.235 239.936 598.976V598.976Z" fill="#FB9A23"/>
<path id="Vector_6" d="M145.2 303.153C165.524 303.153 182 286.677 182 266.353C182 246.029 165.524 229.553 145.2 229.553C124.876 229.553 108.4 246.029 108.4 266.353C108.4 286.677 124.876 303.153 145.2 303.153Z" fill="#2F2E41"/>
<path id="Vector_7" d="M105.5 727.5L98.5 757.5H115.5L122.5 723.5L105.5 727.5Z" fill="#FFB9B9"/>
<path id="Vector_8" d="M187.5 727.5V755.5L204.5 757.5V727.5H187.5Z" fill="#FFB9B9"/>
<path id="Vector_9" d="M100.5 409.5C100.5 409.5 102.5 452.5 104.5 455.5C106.5 458.5 124.5 501.5 124.5 501.5L133.5 473.5C133.5 473.5 119.5 450.5 121.5 437.5C123.5 424.5 122.24 408.503 122.24 408.503L100.5 409.5Z" fill="#FFB9B9"/>
<path id="Vector_10" d="M157.5 305.5C172.964 305.5 185.5 292.964 185.5 277.5C185.5 262.036 172.964 249.5 157.5 249.5C142.036 249.5 129.5 262.036 129.5 277.5C129.5 292.964 142.036 305.5 157.5 305.5Z" fill="#FFB9B9"/>
<path id="Vector_11" d="M134.5 280.5C134.5 280.5 135.5 320.5 128.5 326.5C121.5 332.5 168.5 327.5 168.5 327.5C168.5 327.5 158.5 299.5 166.5 293.5C174.5 287.5 134.5 280.5 134.5 280.5Z" fill="#FFB9B9"/>
<path id="Vector_12" d="M171.5 325.5C171.5 325.5 165.5 314.5 157.5 315.5C149.5 316.5 123.5 318.5 122.5 320.5C121.5 322.5 118.5 329.5 116.5 331.5C114.5 333.5 99.4999 336.5 98.4999 348.5C97.4999 360.5 134.5 433.5 134.5 433.5C134.5 433.5 129.5 450.5 130.5 454.5C131.5 458.5 125.5 470.5 126.5 475.5C127.5 480.5 111.5 510.5 119.5 549.5V612.5C119.5 612.5 92.4999 721.5 100.5 729.5C108.5 737.5 135.5 732.5 140.5 729.5C145.5 726.5 166.5 575.5 166.5 575.5L176.5 524.5L177.5 636.5C177.5 636.5 175.5 730.5 182.5 733.5C189.5 736.5 216.5 737.5 218.5 731.5C220.06 726.82 227.702 602.311 230.991 547.734C232.13 528.895 230.648 509.989 226.588 491.558C222.426 472.68 216.383 450.502 209.5 441.5C196.5 424.5 188.5 370.5 188.5 370.5L205.5 339.5C205.5 339.5 195.5 329.5 189.5 329.5C183.5 329.5 171.5 325.5 171.5 325.5Z" fill="#2F2E41"/>
<path id="Vector_13" d="M104.5 341.5L99.2264 345.089C99.2264 345.089 95.5 409.5 98.5 413.5C101.5 417.5 122.357 415.548 123.929 412.024C125.5 408.5 104.5 341.5 104.5 341.5Z" fill="#2F2E41"/>
<path id="Vector_14" d="M186.5 401.5C186.5 401.5 187.5 443.5 193.5 455.5C199.5 467.5 221.5 517.5 221.5 517.5C221.5 517.5 220.223 572.531 231.361 559.016C242.5 545.5 235.5 513.5 235.5 513.5L216.5 439.5C216.5 439.5 206.5 406.5 207.5 396.5C208.5 386.5 186.5 401.5 186.5 401.5Z" fill="#FFB9B9"/>
<path id="Vector_15" d="M204.5 739.299C204.5 739.299 205.5 738.5 208.5 741.5C211.5 744.5 219.5 748.5 218.5 759.5C217.5 770.5 211.5 772.5 211.5 772.5V769.5H208.5V774.5C208.5 774.5 203.5 790.5 180.5 780.5C180.5 780.5 179.5 772.5 180.5 767.5C181.5 762.5 181.5 738.5 184.5 739.5C187.5 740.5 195.5 741.5 197.5 745.5C199.5 749.5 205.5 748.098 204.5 739.299Z" fill="#2F2E41"/>
<path id="Vector_16" d="M101.5 740.299C101.5 740.299 100.5 739.5 97.5 742.5C94.5 745.5 86.5 749.5 87.5 760.5C88.5 771.5 94.5 773.5 94.5 773.5V770.5H97.5V775.5C97.5 775.5 102.5 791.5 125.5 781.5C125.5 781.5 126.5 773.5 125.5 768.5C124.5 763.5 124.5 739.5 121.5 740.5C118.5 741.5 110.5 742.5 108.5 746.5C106.5 750.5 100.5 749.098 101.5 740.299Z" fill="#2F2E41"/>
<path id="Vector_17" d="M191.5 336.5L205.5 339.5C205.5 339.5 205.5 361.5 209.5 370.5C213.5 379.5 220.5 400.5 217.5 401.5C214.5 402.5 186.5 416.5 184.5 408.5C182.5 400.5 177.5 336.5 191.5 336.5Z" fill="#2F2E41"/>
<path id="Vector_18" d="M105.334 254.699C125.658 254.699 142.133 238.224 142.133 217.9C142.133 197.576 125.658 181.1 105.334 181.1C85.0095 181.1 68.5337 197.576 68.5337 217.9C68.5337 238.224 85.0095 254.699 105.334 254.699Z" fill="#2F2E41"/>
<path id="Vector_19" d="M73.592 248.372C78.3551 251.815 83.8733 254.067 89.6851 254.939C95.4968 255.812 101.433 255.28 106.997 253.388C112.561 251.496 117.591 248.299 121.666 244.065C125.742 239.831 128.743 234.682 130.421 229.049C129.786 234.097 128.112 238.958 125.504 243.326C122.895 247.694 119.41 251.473 115.267 254.426C111.125 257.379 106.415 259.441 101.435 260.482C96.4552 261.522 91.3137 261.519 86.3352 260.473C81.3567 259.426 76.6492 257.359 72.5101 254.401C68.3709 251.443 64.8899 247.659 62.2868 243.289C59.6838 238.918 58.0153 234.054 57.3866 229.006C56.7579 223.958 57.1827 218.834 58.6342 213.958C57.8099 220.509 58.7636 227.16 61.3954 233.216C64.0272 239.271 68.2401 244.506 73.592 248.372V248.372Z" fill="#2F2E41"/>
<path id="Vector_20" d="M135.387 299.473C150.291 299.473 162.374 287.39 162.374 272.486C162.374 257.582 150.291 245.5 135.387 245.5C120.483 245.5 108.4 257.582 108.4 272.486C108.4 287.39 120.483 299.473 135.387 299.473Z" fill="#2F2E41"/>
<path id="Vector_21" d="M158.08 281.073C171.291 281.073 182 272.697 182 262.366C182 252.035 171.291 243.66 158.08 243.66C144.869 243.66 134.16 252.035 134.16 262.366C134.16 272.697 144.869 281.073 158.08 281.073Z" fill="#2F2E41"/>
<path id="Vector_22" d="M164.46 289.567C166.967 289.567 169 285.971 169 281.535C169 277.099 166.967 273.503 164.46 273.503C161.953 273.503 159.92 277.099 159.92 281.535C159.92 285.971 161.953 289.567 164.46 289.567Z" fill="#FFB8B8"/>
<path id="Vector_23" d="M917.642 175.242L406.204 21.6639L282.823 432.539L794.262 586.117L917.642 175.242Z" fill="#F1F1F1"/>
<path id="Vector_24" d="M611.165 141.893L732.305 190.858" stroke="#3F3D56" stroke-width="2" stroke-miterlimit="10"/>
<path id="Vector_25" d="M614.244 151.96L616.058 151.113L611.876 142.182L621.09 138.664L620.374 136.795L609.153 141.082L614.244 151.96Z" fill="#3F3D56"/>
<path id="Vector_26" d="M723.096 195.958L722.38 194.089L731.593 190.572L727.412 181.64L729.226 180.793L734.316 191.673L723.096 195.958Z" fill="#3F3D56"/>
<path id="Vector_27" d="M671.735 177.375C677.81 177.375 682.735 172.451 682.735 166.375C682.735 160.3 677.81 155.375 671.735 155.375C665.66 155.375 660.735 160.3 660.735 166.375C660.735 172.451 665.66 177.375 671.735 177.375Z" fill="#3F3D56"/>
<path id="Vector_28" d="M601.934 481.351L713.537 413.4" stroke="#3F3D56" stroke-width="2" stroke-miterlimit="10"/>
<path id="Vector_29" d="M611.848 484.891L612.251 482.93L602.59 480.953L605.268 471.461L603.341 470.919L600.082 482.48L611.848 484.891Z" fill="#3F3D56"/>
<path id="Vector_30" d="M712.13 423.833L710.203 423.291L712.882 413.801L703.22 411.822L703.624 409.862L715.391 412.274L712.13 423.833Z" fill="#3F3D56"/>
<path id="Vector_31" d="M657.735 458.375C663.81 458.375 668.735 453.451 668.735 447.375C668.735 441.3 663.81 436.375 657.735 436.375C651.66 436.375 646.735 441.3 646.735 447.375C646.735 453.451 651.66 458.375 657.735 458.375Z" fill="#3F3D56"/>
<path id="Vector_32" d="M461.715 266.044L461.755 396.706" stroke="#3F3D56" stroke-width="2" stroke-miterlimit="10"/>
<path id="Vector_33" d="M453.538 272.674L455.003 274.038L461.714 266.812L468.431 274.034L469.895 272.669L461.713 263.875L453.538 272.674Z" fill="#3F3D56"/>
<path id="Vector_34" d="M453.573 390.082L455.038 388.717L461.753 395.939L468.466 388.713L469.931 390.077L461.754 398.875L453.573 390.082Z" fill="#3F3D56"/>
<path id="Vector_35" d="M461.735 342.375C467.81 342.375 472.735 337.451 472.735 331.375C472.735 325.3 467.81 320.375 461.735 320.375C455.66 320.375 450.735 325.3 450.735 331.375C450.735 337.451 455.66 342.375 461.735 342.375Z" fill="#3F3D56"/>
<path id="Vector_36" d="M551 0H369V226H551V0Z" fill="#3F3D56"/>
<path id="Vector_37" d="M448.621 84.1345H407.318C404.499 67.8399 404.499 51.1824 407.318 34.8878H448.621C443.968 50.9736 443.968 68.0487 448.621 84.1345V84.1345Z" fill="#FF6584"/>
<path id="Vector_38" d="M471.379 109.112H512.683C515.501 92.8176 515.501 76.1601 512.683 59.8655H471.379C476.032 75.9513 476.032 93.0264 471.379 109.112V109.112Z" fill="#FB9A23"/>
<path id="Vector_39" d="M432.379 191.112H473.683C476.501 174.818 476.501 158.16 473.683 141.866H432.379C437.032 157.951 437.032 175.026 432.379 191.112V191.112Z" fill="#FB9A23"/>
<path id="Vector_40" d="M930 215H748V441H930V215Z" fill="#3F3D56"/>
<path id="Vector_41" d="M904 263H774V269H904V263Z" fill="#FB9A23"/>
<path id="Vector_42" d="M904 284H774V290H904V284Z" fill="#FB9A23"/>
<path id="Vector_43" d="M904 305H774V311H904V305Z" fill="#FB9A23"/>
<path id="Vector_44" d="M904 326H774V332H904V326Z" fill="#FB9A23"/>
<path id="Vector_45" d="M904 347H774V353H904V347Z" fill="#FB9A23"/>
<path id="Vector_46" d="M873 369H805V393H873V369Z" fill="#FB9A23"/>
<path id="Vector_47" d="M567 447H385V673H567V447Z" fill="#3F3D56"/>
<path id="Vector_48" d="M541.296 572.806H411.296V578.806H541.296V572.806Z" fill="#FB9A23"/>
<path id="Vector_49" d="M541.296 593.806H411.296V599.806H541.296V593.806Z" fill="#FB9A23"/>
<path id="Vector_50" d="M541.296 614.806H411.296V620.806H541.296V614.806Z" fill="#FB9A23"/>
<path id="Vector_51" d="M541.296 635.806H411.296V641.806H541.296V635.806Z" fill="#FB9A23"/>
<path id="Vector_52" opacity="0.3" d="M451.121 527.441H409.818C406.999 511.146 406.999 494.488 409.818 478.194H451.121C446.468 494.28 446.468 511.355 451.121 527.441V527.441Z" fill="#FB9A23"/>
<path id="Vector_53" opacity="0.3" d="M544.296 482.806H468.296V487.806H544.296V482.806Z" fill="#FB9A23"/>
<path id="Vector_54" opacity="0.3" d="M544.296 500.806H468.296V505.806H544.296V500.806Z" fill="#FB9A23"/>
<path id="Vector_55" opacity="0.3" d="M544.296 518.806H468.296V523.806H544.296V518.806Z" fill="#FB9A23"/>
<path id="Vector_56" opacity="0.3" d="M544.296 536.806H468.296V541.806H544.296V536.806Z" fill="#FB9A23"/>
</g>
</svg>
