<svg width="437" height="357" viewBox="0 0 437 357" fill="none" xmlns="http://www.w3.org/2000/svg">
<g id="quecards">
<g id="quecard2">
<path id="vector" d="M184.169 131H0V357H184.169V131Z" fill="#2F2E41"/>
<path id="que_2_line" d="M158.159 256.806H26.6099V262.806H158.159V256.806Z" fill="#A7BFE8" fill-opacity="0.8"/>
<path id="que_2_line_2" d="M158.159 277.806H26.6099V283.806H158.159V277.806Z" fill="#A7BFE8" fill-opacity="0.8"/>
<path id="que_2_line_3" d="M158.159 298.806H26.6099V304.806H158.159V298.806Z" fill="#A7BFE8" fill-opacity="0.8"/>
<path id="que_2_line_4" d="M158.159 319.806H26.6099V325.806H158.159V319.806Z" fill="#A7BFE8" fill-opacity="0.8"/>
<path id="que_2_pic" opacity="0.3" d="M66.9092 211.441H25.1133C22.2611 195.146 22.2611 178.488 25.1133 162.194H66.9092C62.2006 178.28 62.2006 195.355 66.9092 211.441V211.441Z" fill="#A7BFE8" fill-opacity="0.8"/>
<path id="Vector" opacity="0.3" d="M161.195 166.806H84.2891V171.806H161.195V166.806Z" fill="#A7BFE8" fill-opacity="0.8"/>
<path id="Vector_2" opacity="0.3" d="M161.195 184.806H84.2891V189.806H161.195V184.806Z" fill="#A7BFE8" fill-opacity="0.8"/>
<path id="Vector_3" opacity="0.3" d="M161.195 202.806H84.2891V207.806H161.195V202.806Z" fill="#A7BFE8" fill-opacity="0.8"/>
<path id="Vector_4" opacity="0.3" d="M161.195 220.806H84.2891V225.806H161.195V220.806Z" fill="#A7BFE8" fill-opacity="0.8"/>
</g>
<g id="quecard1">
<path id="Vector_5" d="M436.137 0H251.968V226H436.137V0Z" fill="#2F2E41"/>
<path id="Vector_6" d="M409.827 48H278.278V54H409.827V48Z" fill="#A7BFE8" fill-opacity="0.8"/>
<path id="Vector_7" d="M409.827 69H278.278V75H409.827V69Z" fill="#A7BFE8" fill-opacity="0.8"/>
<path id="Vector_8" d="M409.827 90H278.278V96H409.827V90Z" fill="#A7BFE8" fill-opacity="0.8"/>
<path id="Vector_9" d="M409.827 111H278.278V117H409.827V111Z" fill="#A7BFE8" fill-opacity="0.8"/>
<path id="Vector_10" d="M409.827 132H278.278V138H409.827V132Z" fill="#A7BFE8" fill-opacity="0.8"/>
<path id="que_1_btn" d="M378.457 154H309.647V178H378.457V154Z" fill="#A7BFE8" fill-opacity="0.8"/>
</g>
</g>
</svg>
