<svg width="1680" height="960" viewBox="0 0 1680 960" fill="none" xmlns="http://www.w3.org/2000/svg">
<g id="Home Page" clip-path="url(#clip0)">
<g id="lineandball">
<ellipse id="ball1" cx="1207.19" cy="653.837" rx="35.7404" ry="36.7524" transform="rotate(-45 1207.19 653.837)" fill="url(#paint0_linear)"/>
<g id="Vector">
<path d="M1168.91 380.263C1154.55 365.91 1154.23 342.96 1168.19 329.003L1535.95 -38.7522C1549.9 -52.7097 1572.85 -52.3893 1587.21 -38.0366C1601.56 -23.6839 1601.88 -0.733997 1587.92 13.2235L1220.17 380.979C1206.21 394.936 1183.26 394.616 1168.91 380.263Z" fill="url(#paint1_linear)"/>
<path d="M1299.31 353.807C1284.96 339.455 1284.64 316.505 1298.6 302.547L1666.35 -65.2076C1680.31 -79.1651 1703.26 -78.8448 1717.61 -64.4921C1731.97 -50.1394 1732.29 -27.1894 1718.33 -13.2319L1350.57 354.523C1336.62 368.481 1313.67 368.16 1299.31 353.807Z" fill="url(#paint2_linear)"/>
<path d="M1299 458.071C1284.65 443.718 1284.33 420.768 1298.29 406.811L1666.04 39.0555C1680 25.098 1702.95 25.4184 1717.3 39.7711C1731.65 54.1238 1731.97 77.0738 1718.02 91.0313L1350.26 458.786C1336.3 472.744 1313.35 472.423 1299 458.071Z" fill="url(#paint3_linear)"/>
<path d="M1282.13 578.892C1267.78 564.539 1267.46 541.589 1281.42 527.631L1649.17 159.876C1663.13 145.919 1686.08 146.239 1700.43 160.592C1714.78 174.945 1715.11 197.895 1701.15 211.852L1333.39 579.607C1319.44 593.565 1296.49 593.244 1282.13 578.892Z" fill="url(#paint4_linear)"/>
<path d="M1638.47 -37.321C1652.42 -51.2785 1579.62 50.2341 1565.26 35.8814L1587.21 -38.0366C1601.56 -23.6839 1624.51 -23.3635 1638.47 -37.321Z" fill="url(#paint5_linear)"/>
<path d="M1716.58 -11.4943C1702.62 2.4632 1702.94 25.4132 1717.3 39.7659L1667.78 37.3074C1653.43 22.9547 1730.54 -25.4518 1716.58 -11.4943Z" fill="url(#paint6_linear)"/>
<path d="M1699.82 109.438C1685.86 123.395 1686.19 146.345 1700.54 160.698L1651.02 158.24C1636.67 143.887 1713.78 95.4804 1699.82 109.438Z" fill="url(#paint7_linear)"/>
<path d="M1299.72 509.331C1313.68 495.373 1313.35 472.423 1299 458.071L1364.76 453.245C1379.12 467.598 1285.76 523.288 1299.72 509.331Z" fill="url(#paint8_linear)"/>
<path d="M1300.03 405.069C1313.99 391.112 1313.66 368.162 1299.31 353.809L1365.07 348.983C1379.43 363.336 1286.07 419.027 1300.03 405.069Z" fill="url(#paint9_linear)"/>
<path d="M1248.05 353.092C1234.1 367.049 1289.69 282.748 1304.04 297.101L1299.31 353.807C1284.96 339.455 1262.01 339.134 1248.05 353.092Z" fill="url(#paint10_linear)"/>
</g>
</g>
</g>
<defs>
<linearGradient id="paint0_linear" x1="1171.45" y1="653.837" x2="1242.93" y2="653.837" gradientUnits="userSpaceOnUse">
<stop stop-color="#A7BFE8"/>
<stop offset="1" stop-color="#6190E8"/>
</linearGradient>
<linearGradient id="paint1_linear" x1="1204.17" y1="500.928" x2="1743.6" y2="-38.5042" gradientUnits="userSpaceOnUse">
<stop stop-color="#A7BFE8"/>
<stop offset="1" stop-color="#6190E8"/>
</linearGradient>
<linearGradient id="paint2_linear" x1="1204.17" y1="500.928" x2="1743.6" y2="-38.5042" gradientUnits="userSpaceOnUse">
<stop stop-color="#A7BFE8"/>
<stop offset="1" stop-color="#6190E8"/>
</linearGradient>
<linearGradient id="paint3_linear" x1="1204.17" y1="500.928" x2="1743.6" y2="-38.5042" gradientUnits="userSpaceOnUse">
<stop stop-color="#A7BFE8"/>
<stop offset="1" stop-color="#6190E8"/>
</linearGradient>
<linearGradient id="paint4_linear" x1="1204.17" y1="500.928" x2="1743.6" y2="-38.5042" gradientUnits="userSpaceOnUse">
<stop stop-color="#A7BFE8"/>
<stop offset="1" stop-color="#6190E8"/>
</linearGradient>
<linearGradient id="paint5_linear" x1="1204.17" y1="500.928" x2="1743.6" y2="-38.5042" gradientUnits="userSpaceOnUse">
<stop stop-color="#A7BFE8"/>
<stop offset="1" stop-color="#6190E8"/>
</linearGradient>
<linearGradient id="paint6_linear" x1="1204.17" y1="500.928" x2="1743.6" y2="-38.5042" gradientUnits="userSpaceOnUse">
<stop stop-color="#A7BFE8"/>
<stop offset="1" stop-color="#6190E8"/>
</linearGradient>
<linearGradient id="paint7_linear" x1="1204.17" y1="500.928" x2="1743.6" y2="-38.5042" gradientUnits="userSpaceOnUse">
<stop stop-color="#A7BFE8"/>
<stop offset="1" stop-color="#6190E8"/>
</linearGradient>
<linearGradient id="paint8_linear" x1="1204.17" y1="500.928" x2="1743.6" y2="-38.5042" gradientUnits="userSpaceOnUse">
<stop stop-color="#A7BFE8"/>
<stop offset="1" stop-color="#6190E8"/>
</linearGradient>
<linearGradient id="paint9_linear" x1="1204.17" y1="500.928" x2="1743.6" y2="-38.5042" gradientUnits="userSpaceOnUse">
<stop stop-color="#A7BFE8"/>
<stop offset="1" stop-color="#6190E8"/>
</linearGradient>
<linearGradient id="paint10_linear" x1="1204.17" y1="500.928" x2="1743.6" y2="-38.5042" gradientUnits="userSpaceOnUse">
<stop stop-color="#A7BFE8"/>
<stop offset="1" stop-color="#6190E8"/>
</linearGradient>
<clipPath id="clip0">
<rect width="1680" height="960" fill="white"/>
</clipPath>
</defs>
</svg>
